# xmcd
#
# Track frame offsets:
#	150
#	42488
#	80808
#	115123
#	133514
#	168667
#	193950
#
# Disc length: 3183 seconds
# Revision: 1
# Processed by: cddbd v1.5.2PL0 Copyright (c) Steve Scherf et al.
# Submitted via: dBpowerAMP V12.0
#
DISCID=640c6d07
DTITLE=Danny Gatton - Tom Principato - Oh No - More Blazing Telecasters
DYEAR=1984
DGENRE=Blues
TTITLE0=If You Love Me (Like You Say)
TTITLE1=Tom's Samba
TTITLE2=Rumble
TTITLE3=I'm On Fire!
TTITLE4=Harlem Nocturne
TTITLE5=Talk To Me
TTITLE6=Back Door Blues
EXTD=
EXTT0=
EXTT1=
EXTT2=
EXTT3=
EXTT4=
EXTT5=
EXTT6=
PLAYORDER=
